<?xml version="1.0" encoding="utf-8" standalone="no"?>
<!DOCTYPE svg PUBLIC "-//W3C//DTD SVG 1.1//EN"
  "http://www.w3.org/Graphics/SVG/1.1/DTD/svg11.dtd">
<svg xmlns:xlink="http://www.w3.org/1999/xlink" width="851.4pt" height="222.722891pt" viewBox="0 0 851.4 222.722891" xmlns="http://www.w3.org/2000/svg" version="1.1">
 <metadata>
  <rdf:RDF xmlns:dc="http://purl.org/dc/elements/1.1/" xmlns:cc="http://creativecommons.org/ns#" xmlns:rdf="http://www.w3.org/1999/02/22-rdf-syntax-ns#">
   <cc:Work>
    <dc:type rdf:resource="http://purl.org/dc/dcmitype/StillImage"/>
    <dc:date>2022-11-17T13:13:28.646131</dc:date>
    <dc:format>image/svg+xml</dc:format>
    <dc:creator>
     <cc:Agent>
      <dc:title>Matplotlib v3.5.1, https://matplotlib.org/</dc:title>
     </cc:Agent>
    </dc:creator>
   </cc:Work>
  </rdf:RDF>
 </metadata>
 <defs>
  <style type="text/css">*{stroke-linejoin: round; stroke-linecap: butt}</style>
 </defs>
 <g id="figure_1">
  <g id="patch_1">
   <path d="M 0 222.722891 
L 851.4 222.722891 
L 851.4 0 
L 0 0 
z
" style="fill: #ffffff"/>
  </g>
  <g id="axes_1">
   <g id="patch_2">
    <path d="M 142.797902 173.52 
L 220.83986 173.52 
L 220.83986 15.12 
L 142.797902 15.12 
z
" clip-path="url(#p65fba8b5b7)" style="fill: #ff6347"/>
   </g>
   <g id="patch_3">
    <path d="M 435.455245 173.52 
L 513.497203 173.52 
L 513.497203 15.12 
L 435.455245 15.12 
z
" clip-path="url(#p65fba8b5b7)" style="fill: #ff6347"/>
   </g>
   <g id="patch_4">
    <path d="M 45.245455 173.52 
L 123.287413 173.52 
L 123.287413 15.12 
L 45.245455 15.12 
z
" clip-path="url(#p65fba8b5b7)" style="fill: #228b22"/>
   </g>
   <g id="patch_5">
    <path d="M 240.35035 173.52 
L 318.392308 173.52 
L 318.392308 15.12 
L 240.35035 15.12 
z
" clip-path="url(#p65fba8b5b7)" style="fill: #228b22"/>
   </g>
   <g id="patch_6">
    <path d="M 337.902797 173.52 
L 415.944755 173.52 
L 415.944755 15.12 
L 337.902797 15.12 
z
" clip-path="url(#p65fba8b5b7)" style="fill: #228b22"/>
   </g>
   <g id="patch_7">
    <path d="M 533.007692 173.52 
L 611.04965 173.52 
L 611.04965 15.12 
L 533.007692 15.12 
z
" clip-path="url(#p65fba8b5b7)" style="fill: #228b22"/>
   </g>
   <g id="patch_8">
    <path d="M 630.56014 173.52 
L 708.602098 173.52 
L 708.602098 15.12 
L 630.56014 15.12 
z
" clip-path="url(#p65fba8b5b7)" style="fill: #228b22"/>
   </g>
   <g id="patch_9">
    <path d="M 728.112587 173.52 
L 806.154545 173.52 
L 806.154545 15.12 
L 728.112587 15.12 
z
" clip-path="url(#p65fba8b5b7)" style="fill: #228b22"/>
   </g>
   <g id="matplotlib.axis_1">
    <g id="xtick_1">
     <g id="text_1">
      <!-- Nov-12 -->
      <g transform="translate(72.137895 214.052329)rotate(-45)scale(0.1 -0.1)">
       <defs>
        <path id="DejaVuSans-Bold-4e" d="M 588 4666 
L 1931 4666 
L 3628 1466 
L 3628 4666 
L 4769 4666 
L 4769 0 
L 3425 0 
L 1728 3200 
L 1728 0 
L 588 0 
L 588 4666 
z
" transform="scale(0.015625)"/>
        <path id="DejaVuSans-Bold-6f" d="M 2203 2784 
Q 1831 2784 1636 2517 
Q 1441 2250 1441 1747 
Q 1441 1244 1636 976 
Q 1831 709 2203 709 
Q 2569 709 2762 976 
Q 2956 1244 2956 1747 
Q 2956 2250 2762 2517 
Q 2569 2784 2203 2784 
z
M 2203 3584 
Q 3106 3584 3614 3096 
Q 4122 2609 4122 1747 
Q 4122 884 3614 396 
Q 3106 -91 2203 -91 
Q 1297 -91 786 396 
Q 275 884 275 1747 
Q 275 2609 786 3096 
Q 1297 3584 2203 3584 
z
" transform="scale(0.015625)"/>
        <path id="DejaVuSans-Bold-76" d="M 97 3500 
L 1216 3500 
L 2088 1081 
L 2956 3500 
L 4078 3500 
L 2700 0 
L 1472 0 
L 97 3500 
z
" transform="scale(0.015625)"/>
        <path id="DejaVuSans-Bold-2d" d="M 347 2297 
L 2309 2297 
L 2309 1388 
L 347 1388 
L 347 2297 
z
" transform="scale(0.015625)"/>
        <path id="DejaVuSans-Bold-31" d="M 750 831 
L 1813 831 
L 1813 3847 
L 722 3622 
L 722 4441 
L 1806 4666 
L 2950 4666 
L 2950 831 
L 4013 831 
L 4013 0 
L 750 0 
L 750 831 
z
" transform="scale(0.015625)"/>
        <path id="DejaVuSans-Bold-32" d="M 1844 884 
L 3897 884 
L 3897 0 
L 506 0 
L 506 884 
L 2209 2388 
Q 2438 2594 2547 2791 
Q 2656 2988 2656 3200 
Q 2656 3528 2436 3728 
Q 2216 3928 1850 3928 
Q 1569 3928 1234 3808 
Q 900 3688 519 3450 
L 519 4475 
Q 925 4609 1322 4679 
Q 1719 4750 2100 4750 
Q 2938 4750 3402 4381 
Q 3866 4013 3866 3353 
Q 3866 2972 3669 2642 
Q 3472 2313 2841 1759 
L 1844 884 
z
" transform="scale(0.015625)"/>
       </defs>
       <use xlink:href="#DejaVuSans-Bold-4e"/>
       <use xlink:href="#DejaVuSans-Bold-6f" x="83.691406"/>
       <use xlink:href="#DejaVuSans-Bold-76" x="152.392578"/>
       <use xlink:href="#DejaVuSans-Bold-2d" x="217.578125"/>
       <use xlink:href="#DejaVuSans-Bold-31" x="259.082031"/>
       <use xlink:href="#DejaVuSans-Bold-32" x="328.662109"/>
      </g>
     </g>
    </g>
    <g id="xtick_2">
     <g id="text_2">
      <!-- Nov-13 -->
      <g transform="translate(169.690343 214.052329)rotate(-45)scale(0.1 -0.1)">
       <defs>
        <path id="DejaVuSans-Bold-33" d="M 2981 2516 
Q 3453 2394 3698 2092 
Q 3944 1791 3944 1325 
Q 3944 631 3412 270 
Q 2881 -91 1863 -91 
Q 1503 -91 1142 -33 
Q 781 25 428 141 
L 428 1069 
Q 766 900 1098 814 
Q 1431 728 1753 728 
Q 2231 728 2486 893 
Q 2741 1059 2741 1369 
Q 2741 1688 2480 1852 
Q 2219 2016 1709 2016 
L 1228 2016 
L 1228 2791 
L 1734 2791 
Q 2188 2791 2409 2933 
Q 2631 3075 2631 3366 
Q 2631 3634 2415 3781 
Q 2200 3928 1806 3928 
Q 1516 3928 1219 3862 
Q 922 3797 628 3669 
L 628 4550 
Q 984 4650 1334 4700 
Q 1684 4750 2022 4750 
Q 2931 4750 3382 4451 
Q 3834 4153 3834 3553 
Q 3834 3144 3618 2883 
Q 3403 2622 2981 2516 
z
" transform="scale(0.015625)"/>
       </defs>
       <use xlink:href="#DejaVuSans-Bold-4e"/>
       <use xlink:href="#DejaVuSans-Bold-6f" x="83.691406"/>
       <use xlink:href="#DejaVuSans-Bold-76" x="152.392578"/>
       <use xlink:href="#DejaVuSans-Bold-2d" x="217.578125"/>
       <use xlink:href="#DejaVuSans-Bold-31" x="259.082031"/>
       <use xlink:href="#DejaVuSans-Bold-33" x="328.662109"/>
      </g>
     </g>
    </g>
    <g id="xtick_3">
     <g id="text_3">
      <!-- Nov-14 -->
      <g transform="translate(267.24279 214.052329)rotate(-45)scale(0.1 -0.1)">
       <defs>
        <path id="DejaVuSans-Bold-34" d="M 2356 3675 
L 1038 1722 
L 2356 1722 
L 2356 3675 
z
M 2156 4666 
L 3494 4666 
L 3494 1722 
L 4159 1722 
L 4159 850 
L 3494 850 
L 3494 0 
L 2356 0 
L 2356 850 
L 288 850 
L 288 1881 
L 2156 4666 
z
" transform="scale(0.015625)"/>
       </defs>
       <use xlink:href="#DejaVuSans-Bold-4e"/>
       <use xlink:href="#DejaVuSans-Bold-6f" x="83.691406"/>
       <use xlink:href="#DejaVuSans-Bold-76" x="152.392578"/>
       <use xlink:href="#DejaVuSans-Bold-2d" x="217.578125"/>
       <use xlink:href="#DejaVuSans-Bold-31" x="259.082031"/>
       <use xlink:href="#DejaVuSans-Bold-34" x="328.662109"/>
      </g>
     </g>
    </g>
    <g id="xtick_4">
     <g id="text_4">
      <!-- Nov-16 -->
      <g transform="translate(364.795238 214.052329)rotate(-45)scale(0.1 -0.1)">
       <defs>
        <path id="DejaVuSans-Bold-36" d="M 2316 2303 
Q 2000 2303 1842 2098 
Q 1684 1894 1684 1484 
Q 1684 1075 1842 870 
Q 2000 666 2316 666 
Q 2634 666 2792 870 
Q 2950 1075 2950 1484 
Q 2950 1894 2792 2098 
Q 2634 2303 2316 2303 
z
M 3803 4544 
L 3803 3681 
Q 3506 3822 3243 3889 
Q 2981 3956 2731 3956 
Q 2194 3956 1894 3657 
Q 1594 3359 1544 2772 
Q 1750 2925 1990 3001 
Q 2231 3078 2516 3078 
Q 3231 3078 3670 2659 
Q 4109 2241 4109 1563 
Q 4109 813 3618 361 
Q 3128 -91 2303 -91 
Q 1394 -91 895 523 
Q 397 1138 397 2266 
Q 397 3422 980 4083 
Q 1563 4744 2578 4744 
Q 2900 4744 3203 4694 
Q 3506 4644 3803 4544 
z
" transform="scale(0.015625)"/>
       </defs>
       <use xlink:href="#DejaVuSans-Bold-4e"/>
       <use xlink:href="#DejaVuSans-Bold-6f" x="83.691406"/>
       <use xlink:href="#DejaVuSans-Bold-76" x="152.392578"/>
       <use xlink:href="#DejaVuSans-Bold-2d" x="217.578125"/>
       <use xlink:href="#DejaVuSans-Bold-31" x="259.082031"/>
       <use xlink:href="#DejaVuSans-Bold-36" x="328.662109"/>
      </g>
     </g>
    </g>
    <g id="xtick_5">
     <g id="text_5">
      <!-- Nov-1 -->
      <g transform="translate(464.807643 209.132413)rotate(-45)scale(0.1 -0.1)">
       <use xlink:href="#DejaVuSans-Bold-4e"/>
       <use xlink:href="#DejaVuSans-Bold-6f" x="83.691406"/>
       <use xlink:href="#DejaVuSans-Bold-76" x="152.392578"/>
       <use xlink:href="#DejaVuSans-Bold-2d" x="217.578125"/>
       <use xlink:href="#DejaVuSans-Bold-31" x="259.082031"/>
      </g>
     </g>
    </g>
    <g id="xtick_6">
     <g id="text_6">
      <!-- Nov-2 -->
      <g transform="translate(562.360091 209.132413)rotate(-45)scale(0.1 -0.1)">
       <use xlink:href="#DejaVuSans-Bold-4e"/>
       <use xlink:href="#DejaVuSans-Bold-6f" x="83.691406"/>
       <use xlink:href="#DejaVuSans-Bold-76" x="152.392578"/>
       <use xlink:href="#DejaVuSans-Bold-2d" x="217.578125"/>
       <use xlink:href="#DejaVuSans-Bold-32" x="259.082031"/>
      </g>
     </g>
    </g>
    <g id="xtick_7">
     <g id="text_7">
      <!-- Nov-3 -->
      <g transform="translate(659.912539 209.132413)rotate(-45)scale(0.1 -0.1)">
       <use xlink:href="#DejaVuSans-Bold-4e"/>
       <use xlink:href="#DejaVuSans-Bold-6f" x="83.691406"/>
       <use xlink:href="#DejaVuSans-Bold-76" x="152.392578"/>
       <use xlink:href="#DejaVuSans-Bold-2d" x="217.578125"/>
       <use xlink:href="#DejaVuSans-Bold-33" x="259.082031"/>
      </g>
     </g>
    </g>
    <g id="xtick_8">
     <g id="text_8">
      <!-- Nov-4 -->
      <g transform="translate(757.464986 209.132413)rotate(-45)scale(0.1 -0.1)">
       <use xlink:href="#DejaVuSans-Bold-4e"/>
       <use xlink:href="#DejaVuSans-Bold-6f" x="83.691406"/>
       <use xlink:href="#DejaVuSans-Bold-76" x="152.392578"/>
       <use xlink:href="#DejaVuSans-Bold-2d" x="217.578125"/>
       <use xlink:href="#DejaVuSans-Bold-34" x="259.082031"/>
      </g>
     </g>
    </g>
   </g>
   <g id="matplotlib.axis_2">
    <g id="ytick_1"/>
    <g id="ytick_2"/>
    <g id="ytick_3"/>
    <g id="ytick_4"/>
    <g id="ytick_5"/>
    <g id="ytick_6"/>
   </g>
  </g>
 </g>
 <defs>
  <clipPath id="p65fba8b5b7">
   <rect x="7.2" y="7.2" width="837" height="166.32"/>
  </clipPath>
 </defs>
</svg>
